<mxfile host="app.diagrams.net" agent="Mozilla/5.0 (Windows NT 10.0; Win64; x64; rv:142.0) Gecko/20100101 Firefox/142.0" version="28.2.3">
  <diagram name="1 oldal" id="WHaW6EbZxiReuUSH6q5l">
    <mxGraphModel dx="868" dy="448" grid="1" gridSize="10" guides="1" tooltips="1" connect="1" arrows="1" fold="1" page="1" pageScale="1" pageWidth="827" pageHeight="1169" math="0" shadow="0">
      <root>
        <mxCell id="0" />
        <mxCell id="1" parent="0" />
        <mxCell id="aQVWFm8Lheq-TPfID-P6-27" style="edgeStyle=orthogonalEdgeStyle;rounded=0;orthogonalLoop=1;jettySize=auto;html=1;exitX=0.5;exitY=1;exitDx=0;exitDy=0;entryX=0.5;entryY=1;entryDx=0;entryDy=0;" parent="1" source="aQVWFm8Lheq-TPfID-P6-3" target="aQVWFm8Lheq-TPfID-P6-26" edge="1">
          <mxGeometry relative="1" as="geometry" />
        </mxCell>
        <mxCell id="aQVWFm8Lheq-TPfID-P6-3" value="XY_orarend" style="ellipse;whiteSpace=wrap;html=1;" parent="1" vertex="1">
          <mxGeometry x="366" y="10" width="96" height="50" as="geometry" />
        </mxCell>
        <mxCell id="aQVWFm8Lheq-TPfID-P6-4" value="ora" style="ellipse;whiteSpace=wrap;html=1;" parent="1" vertex="1">
          <mxGeometry x="389" y="100" width="50" height="30" as="geometry" />
        </mxCell>
        <mxCell id="aQVWFm8Lheq-TPfID-P6-6" value="tárgy" style="rounded=0;whiteSpace=wrap;html=1;" parent="1" vertex="1">
          <mxGeometry x="269" y="220" width="50" height="40" as="geometry" />
        </mxCell>
        <mxCell id="aQVWFm8Lheq-TPfID-P6-16" style="edgeStyle=orthogonalEdgeStyle;rounded=0;orthogonalLoop=1;jettySize=auto;html=1;exitX=0.5;exitY=1;exitDx=0;exitDy=0;entryX=0.5;entryY=0;entryDx=0;entryDy=0;" parent="1" source="aQVWFm8Lheq-TPfID-P6-7" target="aQVWFm8Lheq-TPfID-P6-9" edge="1">
          <mxGeometry relative="1" as="geometry" />
        </mxCell>
        <mxCell id="aQVWFm8Lheq-TPfID-P6-7" value="idopont" style="ellipse;whiteSpace=wrap;html=1;" parent="1" vertex="1">
          <mxGeometry x="388" y="225" width="50" height="30" as="geometry" />
        </mxCell>
        <mxCell id="aQVWFm8Lheq-TPfID-P6-8" value="nap" style="ellipse;whiteSpace=wrap;html=1;" parent="1" vertex="1">
          <mxGeometry x="329" y="320" width="50" height="30" as="geometry" />
        </mxCell>
        <mxCell id="aQVWFm8Lheq-TPfID-P6-9" value="tól" style="ellipse;whiteSpace=wrap;html=1;" parent="1" vertex="1">
          <mxGeometry x="388" y="320" width="50" height="30" as="geometry" />
        </mxCell>
        <mxCell id="aQVWFm8Lheq-TPfID-P6-10" value="ig" style="ellipse;whiteSpace=wrap;html=1;" parent="1" vertex="1">
          <mxGeometry x="449" y="320" width="50" height="30" as="geometry" />
        </mxCell>
        <mxCell id="aQVWFm8Lheq-TPfID-P6-11" value="helyszin" style="rounded=0;whiteSpace=wrap;html=1;" parent="1" vertex="1">
          <mxGeometry x="329" y="220" width="50" height="40" as="geometry" />
        </mxCell>
        <mxCell id="aQVWFm8Lheq-TPfID-P6-13" value="oktato" style="rounded=0;whiteSpace=wrap;html=1;" parent="1" vertex="1">
          <mxGeometry x="449" y="220" width="50" height="40" as="geometry" />
        </mxCell>
        <mxCell id="aQVWFm8Lheq-TPfID-P6-14" value="szak" style="rounded=0;whiteSpace=wrap;html=1;" parent="1" vertex="1">
          <mxGeometry x="509" y="220" width="50" height="40" as="geometry" />
        </mxCell>
        <mxCell id="aQVWFm8Lheq-TPfID-P6-26" value="" style="ellipse;whiteSpace=wrap;html=1;fillColor=none;direction=west;" parent="1" vertex="1">
          <mxGeometry x="384" y="95" width="60" height="40" as="geometry" />
        </mxCell>
        <mxCell id="w3MJ9or88PdQqG62RPLJ-1" value="" style="endArrow=classic;html=1;rounded=0;exitX=0.5;exitY=0;exitDx=0;exitDy=0;entryX=0.5;entryY=0;entryDx=0;entryDy=0;" edge="1" parent="1" source="aQVWFm8Lheq-TPfID-P6-26" target="aQVWFm8Lheq-TPfID-P6-7">
          <mxGeometry width="50" height="50" relative="1" as="geometry">
            <mxPoint x="400" y="270" as="sourcePoint" />
            <mxPoint x="450" y="220" as="targetPoint" />
          </mxGeometry>
        </mxCell>
        <mxCell id="w3MJ9or88PdQqG62RPLJ-2" value="" style="endArrow=classic;html=1;rounded=0;exitX=0.5;exitY=0;exitDx=0;exitDy=0;entryX=0.5;entryY=0;entryDx=0;entryDy=0;" edge="1" parent="1" source="aQVWFm8Lheq-TPfID-P6-26" target="aQVWFm8Lheq-TPfID-P6-13">
          <mxGeometry width="50" height="50" relative="1" as="geometry">
            <mxPoint x="400" y="270" as="sourcePoint" />
            <mxPoint x="450" y="220" as="targetPoint" />
          </mxGeometry>
        </mxCell>
        <mxCell id="w3MJ9or88PdQqG62RPLJ-3" value="" style="endArrow=classic;html=1;rounded=0;exitX=0.5;exitY=0;exitDx=0;exitDy=0;entryX=0.5;entryY=0;entryDx=0;entryDy=0;" edge="1" parent="1" source="aQVWFm8Lheq-TPfID-P6-26" target="aQVWFm8Lheq-TPfID-P6-14">
          <mxGeometry width="50" height="50" relative="1" as="geometry">
            <mxPoint x="440" y="180" as="sourcePoint" />
            <mxPoint x="500" y="265" as="targetPoint" />
          </mxGeometry>
        </mxCell>
        <mxCell id="w3MJ9or88PdQqG62RPLJ-4" value="" style="endArrow=classic;html=1;rounded=0;exitX=0.5;exitY=0;exitDx=0;exitDy=0;entryX=0.5;entryY=0;entryDx=0;entryDy=0;" edge="1" parent="1" source="aQVWFm8Lheq-TPfID-P6-26" target="aQVWFm8Lheq-TPfID-P6-11">
          <mxGeometry width="50" height="50" relative="1" as="geometry">
            <mxPoint x="550" y="160" as="sourcePoint" />
            <mxPoint x="610" y="245" as="targetPoint" />
          </mxGeometry>
        </mxCell>
        <mxCell id="w3MJ9or88PdQqG62RPLJ-5" value="" style="endArrow=classic;html=1;rounded=0;exitX=0.5;exitY=0;exitDx=0;exitDy=0;entryX=0.5;entryY=0;entryDx=0;entryDy=0;" edge="1" parent="1" source="aQVWFm8Lheq-TPfID-P6-26" target="aQVWFm8Lheq-TPfID-P6-6">
          <mxGeometry width="50" height="50" relative="1" as="geometry">
            <mxPoint x="620" y="170" as="sourcePoint" />
            <mxPoint x="680" y="255" as="targetPoint" />
          </mxGeometry>
        </mxCell>
        <mxCell id="w3MJ9or88PdQqG62RPLJ-6" value="" style="endArrow=classic;html=1;rounded=0;entryX=0.5;entryY=0;entryDx=0;entryDy=0;exitX=0.5;exitY=1;exitDx=0;exitDy=0;" edge="1" parent="1" source="aQVWFm8Lheq-TPfID-P6-7" target="aQVWFm8Lheq-TPfID-P6-10">
          <mxGeometry width="50" height="50" relative="1" as="geometry">
            <mxPoint x="400" y="280" as="sourcePoint" />
            <mxPoint x="450" y="220" as="targetPoint" />
          </mxGeometry>
        </mxCell>
        <mxCell id="w3MJ9or88PdQqG62RPLJ-7" value="" style="endArrow=classic;html=1;rounded=0;entryX=0.5;entryY=0;entryDx=0;entryDy=0;exitX=0.5;exitY=1;exitDx=0;exitDy=0;" edge="1" parent="1" source="aQVWFm8Lheq-TPfID-P6-7" target="aQVWFm8Lheq-TPfID-P6-8">
          <mxGeometry width="50" height="50" relative="1" as="geometry">
            <mxPoint x="410" y="260" as="sourcePoint" />
            <mxPoint x="450" y="220" as="targetPoint" />
          </mxGeometry>
        </mxCell>
        <mxCell id="w3MJ9or88PdQqG62RPLJ-10" value="Id" style="rhombus;whiteSpace=wrap;html=1;" vertex="1" parent="1">
          <mxGeometry x="200" y="205" width="50" height="70" as="geometry" />
        </mxCell>
        <mxCell id="w3MJ9or88PdQqG62RPLJ-11" value="Típus" style="rhombus;whiteSpace=wrap;html=1;" vertex="1" parent="1">
          <mxGeometry x="580" y="205" width="50" height="70" as="geometry" />
        </mxCell>
        <mxCell id="w3MJ9or88PdQqG62RPLJ-12" value="" style="endArrow=classic;html=1;rounded=0;exitX=0.5;exitY=0;exitDx=0;exitDy=0;entryX=0.5;entryY=0;entryDx=0;entryDy=0;" edge="1" parent="1" source="aQVWFm8Lheq-TPfID-P6-26" target="w3MJ9or88PdQqG62RPLJ-10">
          <mxGeometry width="50" height="50" relative="1" as="geometry">
            <mxPoint x="460" y="180" as="sourcePoint" />
            <mxPoint x="340" y="265" as="targetPoint" />
          </mxGeometry>
        </mxCell>
        <mxCell id="w3MJ9or88PdQqG62RPLJ-13" value="" style="endArrow=classic;html=1;rounded=0;exitX=0.5;exitY=0;exitDx=0;exitDy=0;entryX=0.5;entryY=0;entryDx=0;entryDy=0;" edge="1" parent="1" source="aQVWFm8Lheq-TPfID-P6-26" target="w3MJ9or88PdQqG62RPLJ-11">
          <mxGeometry width="50" height="50" relative="1" as="geometry">
            <mxPoint x="500" y="190" as="sourcePoint" />
            <mxPoint x="620" y="275" as="targetPoint" />
          </mxGeometry>
        </mxCell>
      </root>
    </mxGraphModel>
  </diagram>
</mxfile>
